<svg width="41" height="20" viewBox="0 0 41 20" fill="none" xmlns="http://www.w3.org/2000/svg">
<ellipse cx="3.18413" cy="2.98809" rx="2.53252" ry="2.45867" fill="#EDEEFF"/>
<ellipse cx="12.0118" cy="2.98809" rx="2.53252" ry="2.45867" fill="#EDEEFF"/>
<ellipse cx="20.6946" cy="2.98809" rx="2.53252" ry="2.45867" fill="#EDEEFF"/>
<ellipse cx="29.667" cy="2.98809" rx="2.53252" ry="2.45867" fill="#EDEEFF"/>
<ellipse cx="38.3499" cy="2.98809" rx="2.53252" ry="2.45867" fill="#EDEEFF"/>
<ellipse cx="3.18413" cy="10.1534" rx="2.53252" ry="2.45867" fill="#EDEEFF"/>
<ellipse cx="12.0118" cy="10.1534" rx="2.53252" ry="2.45867" fill="#EDEEFF"/>
<ellipse cx="20.6946" cy="10.1534" rx="2.53252" ry="2.45867" fill="#EDEEFF"/>
<ellipse cx="29.667" cy="10.1534" rx="2.53252" ry="2.45867" fill="#EDEEFF"/>
<ellipse cx="38.3499" cy="10.1534" rx="2.53252" ry="2.45867" fill="#EDEEFF"/>
<ellipse cx="3.18413" cy="17.3187" rx="2.53252" ry="2.45867" fill="#EDEEFF"/>
<ellipse cx="12.0118" cy="17.3187" rx="2.53252" ry="2.45867" fill="#EDEEFF"/>
<ellipse cx="20.6946" cy="17.3187" rx="2.53252" ry="2.45867" fill="#EDEEFF"/>
<ellipse cx="29.667" cy="17.3187" rx="2.53252" ry="2.45867" fill="#EDEEFF"/>
<ellipse cx="38.3499" cy="17.3187" rx="2.53252" ry="2.45867" fill="#EDEEFF"/>
</svg>
