<svg width="188" height="220" viewBox="0 0 188 220" fill="none" xmlns="http://www.w3.org/2000/svg">
<path d="M6.37486 49.8993C-0.605875 44.0418 -1.58719 33.5216 5.24779 27.4947C16.2377 17.804 29.0965 10.3687 43.0965 5.68439C62.3346 -0.752592 82.9781 -1.74417 102.745 2.8193C122.511 7.38276 140.631 17.3235 155.1 31.5425C169.569 45.7614 179.825 63.7047 184.733 83.3886C189.64 103.072 189.009 123.73 182.909 143.078C176.809 162.425 165.477 179.709 150.166 193.018C134.856 206.327 116.163 215.143 96.1552 218.491C81.5948 220.928 66.7505 220.4 52.4975 217.003C43.6331 214.89 39.5606 205.141 42.9743 196.692C46.388 188.243 56.0151 184.355 64.997 185.894C73.4662 187.345 82.1574 187.375 90.7087 185.944C104.714 183.6 117.799 177.429 128.517 168.113C139.234 158.796 147.166 146.698 151.436 133.154C155.706 119.611 156.148 105.151 152.713 91.372C149.277 77.5933 142.099 65.033 131.97 55.0797C121.841 45.1264 109.158 38.1679 95.3212 34.9735C81.4847 31.7791 67.0342 32.4732 53.5676 36.9791C45.3454 39.7302 37.6856 43.8368 30.8889 49.094C23.6808 54.6694 13.3556 55.7569 6.37486 49.8993Z" fill="#7579FF"/>
</svg>
