<svg width="38" height="32" viewBox="0 0 38 32" fill="none" xmlns="http://www.w3.org/2000/svg">
<path d="M37.5684 4.44876C36.2016 5.05596 34.7332 5.46436 33.192 5.64876C34.766 4.70596 35.9728 3.21356 36.5412 1.43396C35.07 2.30676 33.4392 2.94076 31.702 3.28356C30.3124 1.80236 28.3328 0.876757 26.1416 0.876757C21.2984 0.811957 17.5748 5.54356 18.7208 10.2308C12.3892 9.91356 6.776 6.87996 3.0168 2.26916C0.965199 5.61476 2.13 10.3992 5.3752 12.4416C4.1268 12.4016 2.9512 12.0588 1.9244 11.4888C1.8768 15.2108 4.5172 18.3532 8.036 19.0544C6.9548 19.356 5.7092 19.4032 4.5952 19.1856C5.5652 22.212 8.3788 24.416 11.7124 24.4772C8.6984 26.8856 4.4788 28.1412 0.431999 27.6324C16.7048 37.6472 34.694 24.5264 33.7652 8.39196C35.2544 7.31676 36.5472 5.97556 37.5684 4.44876Z" fill="url(#paint0_linear_16_355)"/>
<defs>
<linearGradient id="paint0_linear_16_355" x1="0.431999" y1="15.9998" x2="37.5684" y2="15.9998" gradientUnits="userSpaceOnUse">
<stop stop-color="#B224EF"/>
<stop offset="1" stop-color="#7579FF"/>
</linearGradient>
</defs>
</svg>
